<?xml version="1.0"?>
<svg version="1.1" xmlns="http://www.w3.org/2000/svg" width="400px" height="200px" style="border: dashed 2px #aaa"><path fill="#2385cc" d="M123.984375,87.890625q-0.078125-0.953125,0.125-1.65625t0.8125-1.15625t1.953125-0.453125l5.03125,0q1.03125,0,2.703125,0.109375t3.59375,0.328125t3.828125,0.671875t3.484375,1.125t2.5625,1.65625t0.984375,2.328125q0,1.90625-1.109375,3.578125t-2.78125,3.015625t-3.53125,2.390625t-3.328125,1.890625q5.8125,1.28125,9.09375,5.3125t3.28125,10.0625q0,3.1875-1.21875,6.296875t-3.328125,5.609375t-5,4.03125t-6.203125,1.53125q-0.4375,0-0.984375-0.09375t-1-0.296875t-0.78125-0.578125t-0.328125-0.96875q0-2.75,2.96875-2.75q0.5,0,1.171875,0.140625t1.046875,0.578125q1.71875-0.71875,3.140625-2.28125t2.40625-3.484375t1.53125-4.03125t0.546875-3.828125q0-2.0625-0.609375-4.203125t-1.765625-3.96875t-2.84375-3.078125t-3.875-1.5625q-0.5625-0.0625-1.234375-0.09375l-1.34375-0.0625t-1.3125-0.1875t-1.109375-0.5q0.25,5.1875,0.640625,10.34375t1.046875,10.34375q0.25,0.25,0.34375,0.734375t0.15625,1.03125t0.0625,1.046875l0,0.84375q0,0.5625-0.375,0.921875t-0.890625,0.578125t-1.09375,0.28125t-1.015625,0.0625q-1.40625,0-2.15625-0.375t-1.0625-1.09375t-0.40625-1.640625t-0.15625-2.015625q-0.84375-8.71875-1.21875-17.25t-0.375-17.25q0-1.03125-0.078125-1.984375z M129.75,86.5625q0,3.84375,0.25,7.703125t0.4375,7.703125q1.40625-0.84375,3.6875-1.984375t4.421875-2.515625t3.671875-3.03125t1.53125-3.59375q0-1.53125-1.8125-2.328125t-4.21875-1.1875t-4.703125-0.484375t-3.265625-0.28125z M157.0521875,121.625q0-2.1875,0.484375-5.15625t1.640625-5.625t3.046875-4.515625t4.765625-1.859375q2.6875,0,4.03125,1.546875t1.34375,4.171875q0,1.71875-0.640625,3.765625t-1.828125,3.875t-2.8125,3.046875t-3.625,1.21875l-0.8125-0.0625q0,0.84375,0.25,2.265625t0.734375,2.828125t1.25,2.46875t1.859375,1.0625q1.59375,0,3.0625-1.28125t2.78125-2.84375t2.4375-2.84375t2.0625-1.28125q0.5,0,1.03125,0.15625t0.59375,0.875q0,0.4375-0.234375,0.71875t-0.421875,0.625q-0.96875,1.65625-2.109375,3.15625t-2.578125,2.71875t-3.140625,1.921875t-3.765625,0.703125q-2.6875,0-4.46875-0.953125t-2.875-2.5625t-1.578125-3.71875t-0.484375-4.421875z M162.6459375,119.25l0.875,0.78125q0.625,0.5625,1.25,0.25t1.125-1.140625t0.921875-2.046875t0.75-2.5t0.484375-2.5t0.15625-2.03125l0-1.0625t-0.09375-1.125t-0.328125-0.890625t-0.734375-0.453125q-0.15625-0.03125-0.28125-0.03125q-1.0625,0-1.8125,1.34375q-0.8125,1.5-1.3125,3.640625t-0.71875,4.390625t-0.28125,3.375z M183.166875,121.625q0-2.1875,0.484375-5.15625t1.640625-5.625t3.046875-4.515625t4.765625-1.859375q2.6875,0,4.03125,1.546875t1.34375,4.171875q0,1.71875-0.640625,3.765625t-1.828125,3.875t-2.8125,3.046875t-3.625,1.21875l-0.8125-0.0625q0,0.84375,0.25,2.265625t0.734375,2.828125t1.25,2.46875t1.859375,1.0625q1.59375,0,3.0625-1.28125t2.78125-2.84375t2.4375-2.84375t2.0625-1.28125q0.5,0,1.03125,0.15625t0.59375,0.875q0,0.4375-0.234375,0.71875t-0.421875,0.625q-0.96875,1.65625-2.109375,3.15625t-2.578125,2.71875t-3.140625,1.921875t-3.765625,0.703125q-2.6875,0-4.46875-0.953125t-2.875-2.5625t-1.578125-3.71875t-0.484375-4.421875z M188.760625,119.25l0.875,0.78125q0.625,0.5625,1.25,0.25t1.125-1.140625t0.921875-2.046875t0.75-2.5t0.484375-2.5t0.15625-2.03125l0-1.0625t-0.09375-1.125t-0.328125-0.890625t-0.734375-0.453125q-0.15625-0.03125-0.28125-0.03125q-1.0625,0-1.8125,1.34375q-0.8125,1.5-1.3125,3.640625t-0.71875,4.390625t-0.28125,3.375z M209.2815625,109.03125q0-1.46875,0.578125-2.171875t2.109375-0.703125q0.90625,0,1.703125,0.375t0.796875,1.59375q0.125,1.78125,0.125,3.734375t0.34375,3.703125q0.78125-1.28125,1.765625-2.5625t2.171875-2.28125t2.59375-1.609375t3.0625-0.609375q2.25,0,3.8125,0.9375t2.578125,2.4375t1.46875,3.390625t0.453125,3.796875q0,2.9375-0.890625,4.796875t-2.359375,2.921875t-3.328125,1.4375t-3.734375,0.375q-1.65625,0-3.09375-0.640625t-2-2.421875q0-0.5,0.734375-0.625t1.046875-0.125q1.03125,0,1.53125,0.5625q0.375,0.4375,0.828125,0.890625t0.953125,0.453125q0.96875,0,2.03125-0.546875t1.953125-1.4375t1.5-2.109375t0.609375-2.5q0-1.09375-0.1875-2.71875t-0.640625-3.125t-1.25-2.59375t-2.015625-1.09375q-1.84375,0-3.328125,1.6875t-2.46875,4.0625t-1.53125,4.9375t-0.546875,4.28125t0.21875,4.34375t0.453125,5.453125t0.453125,5.453125t0.21875,4.34375q0,0.4375-0.359375,0.703125t-0.859375,0.421875t-1.015625,0.1875t-0.765625,0.03125q-0.84375,0-1.765625-0.1875t-1.265625-1.15625q-0.4375-1.53125-0.8125-4.359375t-0.671875-6.25t-0.515625-7.1875t-0.375-7.265625t-0.234375-6.40625t-0.078125-4.625z"/><path fill="#" d=""/></svg>
